<svg xmlns="http://www.w3.org/2000/svg" xmlns:xlink="http://www.w3.org/1999/xlink" width="122" height="67" viewBox="0 0 122 67">
    <defs>
        <path id="a" d="M0 .814h121.992v65.77H0z"/>
    </defs>
    <g fill="none" fill-rule="evenodd">
        <g>
            <mask id="b" fill="#fff">
                <use xlink:href="#a"/>
            </mask>
            <path fill="#FFF" d="M3.22.814S0 .814 0 3.999v59.4s0 3.184 3.22 3.184h115.552s3.22 0 3.22-3.185V4s0-3.185-3.22-3.185H3.22z" mask="url(#b)"/>
        </g>
        <path fill="#007FA4" d="M60.35 24H44.983v1.349h.127c1.874 0 2.507.982 2.507 3.888v12.988c0 2.71-.718 3.411-3.491 3.411H44V47h16.779L62 41.335l-.94-.482-.062.096c-1.954 3.02-3.105 4.092-5.668 4.092-2.165 0-2.86-.804-2.86-3.312v-5.722l2.291.1c2.218.104 2.847.586 3.539 2.717l.029.088h.954v-7.566h-.959l-.026.093c-.62 2.227-1.116 2.607-3.537 2.71l-2.292.101v-8.529l2.532.236c2.328.281 3.66.848 4.935 3.307l.05.097.933-.315L60.467 24h-.117zM75.97 24h-9.988v1.349h.126c1.804 0 2.508.96 2.508 3.427v13.45c0 2.709-.718 3.41-3.491 3.41H65V47h16.78L83 41.33l-.95-.475-.062.096c-2.04 3.204-3.241 4.082-5.592 4.082-2.272 0-2.93-.766-2.93-3.411V29.237c0-2.942.609-3.888 2.505-3.888h.125V24h-.125zM27.546 42.11V25.752c2.717.14 3.592.283 4.924.853a8.894 8.894 0 0 1 2.748 1.856c1.824 1.803 2.75 4.225 2.75 7.194 0 2.85-.76 5.45-2.14 7.319-1.371 1.857-3.065 2.88-5.149 2.88-1.962 0-3.133-1.4-3.133-3.746m-4.904-17.855c-.8.047-1.74.132-2.791.254l-.118.014v1.37h.132c2.335 0 2.657.45 2.657 3.712V42.87c0 2.8-.665 3.484-3.39 3.484H19v1.394h6.698c1.229 0 2.32.08 3.282.148.771.057 1.437.104 2.038.104 3.545 0 6.554-1.136 8.702-3.287C41.867 42.565 43 39.56 43 36.019c0-4.432-1.95-7.942-5.641-10.152C35.047 24.49 32.734 24 28.524 24a69.94 69.94 0 0 0-5.882.254M94.883 29.154c.224.606 2.924 7.979 3.038 8.295h-6.075c.114-.316 2.816-7.69 3.037-8.295zM97.491 24h-3.203l-7.2 18.178c-1.118 2.845-1.56 3.363-2.967 3.457l-.121.01V47h8.553v-1.365h-.133c-.13 0-.714-.011-1.157-.08-.875-.135-1.318-.623-1.318-1.45 0-.411.083-.863.246-1.343 0-.002.86-2.61 1.02-3.105h7.562c.06.16 1.203 3.354 1.203 3.354.136.334.21.707.21 1.057 0 1.085-.697 1.567-2.26 1.567h-.13V47H107v-1.335l-.099-.025c-.789-.2-1.244-.512-1.684-1.755L97.581 24h-.09zM78.08 21.499c-.18-.274-.045-.499.3-.499h12.24c.346 0 .48.225.3.499l-6.093 9.295c-.18.275-.473.275-.653 0L78.08 21.5z"/>
    </g>
</svg>
